<?xml version="1.0" standalone="no"?>
<!DOCTYPE svg PUBLIC "-//W3C//DTD SVG 20010904//EN"
 "http://www.w3.org/TR/2001/REC-SVG-20010904/DTD/svg10.dtd">
<svg version="1.0" xmlns="http://www.w3.org/2000/svg"
 width="260.000000pt" height="260.000000pt" viewBox="0 0 260.000000 260.000000"
 preserveAspectRatio="xMidYMid meet">
<metadata>
Created by potrace 1.11, written by Peter Selinger 2001-2013
</metadata>
<g transform="translate(0.000000,260.000000) scale(0.100000,-0.100000)"
fill="#000000" stroke="none">
<path d="M1190 2487 c0 -3 19 -24 41 -48 l42 -44 -32 42 c-30 40 -51 60 -51
50z"/>
<path d="M1490 2475 c0 -3 5 -11 10 -18 6 -7 17 -21 26 -32 13 -17 13 -16 0
12 -15 29 -36 52 -36 38z"/>
<path d="M1797 2357 c15 -42 31 -77 35 -77 7 0 -41 130 -54 145 -5 5 4 -25 19
-68z"/>
<path d="M2145 2283 c7 -15 215 -1216 240 -1381 l6 -43 -63 7 c-55 6 -68 11
-104 46 l-41 39 -16 -41 c-14 -36 -19 -40 -50 -40 -20 0 -42 -3 -50 -6 -11 -4
-37 27 -91 108 -41 63 -102 146 -135 186 l-61 71 45 92 c53 109 58 154 20 189
-38 36 -90 33 -125 -7 -15 -17 -30 -37 -32 -44 -3 -10 -13 -6 -37 14 -88 73
-196 -20 -133 -115 10 -15 44 -51 76 -80 l59 -53 -153 -113 -153 -113 6 -52
c3 -29 22 -105 43 -170 l38 -118 123 -104 c116 -98 121 -104 95 -109 -165 -33
-333 -56 -349 -48 -20 11 -146 323 -141 350 9 44 27 11 53 -95 15 -65 30 -113
32 -107 4 12 -283 1464 -291 1472 -15 15 -19 -16 -10 -88 10 -86 8 -90 -36
-65 -32 18 -40 18 -40 0 0 -9 -9 -34 -21 -57 -17 -33 -19 -46 -10 -64 12 -26
49 -32 69 -12 9 9 12 7 12 -9 0 -12 -10 -29 -22 -37 -33 -23 -16 -29 31 -10
23 9 44 14 47 11 3 -3 21 -88 39 -189 19 -101 59 -284 90 -407 30 -123 54
-225 52 -227 -2 -2 -20 13 -40 34 -31 32 -57 93 -187 432 -206 537 -240 623
-251 634 -15 16 -11 -9 11 -66 l19 -51 -39 38 c-22 21 -43 36 -47 32 -3 -4 -1
-30 5 -58 7 -28 9 -55 6 -61 -4 -6 2 -8 12 -6 13 3 18 11 17 26 -2 12 2 22 7
22 6 0 10 -7 10 -16 0 -10 6 -13 19 -9 13 4 20 0 24 -15 4 -16 2 -18 -13 -10
-16 9 -19 3 -30 -56 -6 -37 -8 -69 -5 -72 3 -4 29 -16 56 -27 50 -20 50 -20
79 -105 36 -109 92 -247 175 -435 58 -132 72 -155 120 -200 30 -28 55 -58 55
-67 0 -9 -32 -56 -71 -103 l-71 -86 -23 33 c-30 44 -84 86 -177 137 -66 36
-79 48 -87 78 -11 40 -53 98 -81 113 -35 19 -106 28 -122 16 -24 -18 -40 -55
-36 -89 l3 -31 -71 -11 c-80 -12 -144 -51 -144 -86 0 -11 4 -17 10 -14 5 3 7
0 4 -8 -7 -20 47 -63 107 -84 42 -15 49 -21 44 -38 -4 -11 -7 -28 -8 -37 -1
-9 -5 -14 -10 -11 -5 3 -6 -4 -2 -17 5 -15 3 -20 -3 -16 -13 8 -26 -29 -16
-45 4 -8 3 -9 -4 -5 -14 9 -15 -4 -3 -36 7 -19 29 -29 125 -58 113 -33 116
-35 98 -52 -18 -18 -21 -18 -113 2 -51 12 -102 25 -112 31 -16 9 -17 7 -8 -10
8 -14 36 -25 102 -40 125 -29 139 -28 172 14 30 38 70 66 61 42 -6 -17 69
-115 99 -127 12 -6 65 -19 117 -30 l95 -21 22 26 c12 14 26 25 30 25 5 0 38
-29 73 -65 56 -56 69 -65 101 -65 44 0 64 14 189 136 94 91 96 92 170 107 160
33 160 33 160 -44 0 -67 20 -79 240 -134 l195 -48 115 37 c128 42 193 71 210
91 8 9 12 95 13 255 l2 242 -28 24 c-15 13 -40 24 -55 24 -15 0 -32 4 -38 8
-15 9 -116 534 -213 1102 -60 346 -58 340 -72 340 -7 0 -8 -7 -4 -17z m-1171
-548 c4 -13 2 -14 -14 -5 -23 13 -26 20 -6 20 8 0 16 -7 20 -15z m205 -1092
c19 -49 43 -108 53 -133 22 -52 22 -53 -67 63 l-68 88 19 35 c10 19 21 34 24
34 3 0 21 -39 39 -87z m31 -227 c0 -2 -7 -7 -16 -10 -8 -3 -12 -2 -9 4 6 10
25 14 25 6z m-295 -110 c136 -40 137 -45 2 -16 -129 29 -124 26 -158 78 l-31
47 34 -37 c29 -33 48 -42 153 -72z m310 84 c-3 -5 -11 -10 -16 -10 -6 0 -7 5
-4 10 3 6 11 10 16 10 6 0 7 -4 4 -10z m250 -18 c-6 -5 -54 -50 -108 -100 -64
-61 -105 -92 -120 -92 -15 0 -44 22 -84 63 -51 51 -60 65 -50 77 15 19 47 22
47 5 0 -8 9 -16 19 -20 11 -3 18 -12 15 -18 -2 -7 8 -20 24 -29 27 -16 30 -16
58 2 16 11 25 20 21 20 -4 0 -2 6 5 14 7 8 16 12 21 9 4 -2 7 3 7 11 0 10 6
13 17 9 12 -5 15 -2 10 9 -6 16 2 21 63 38 36 11 66 12 55 2z m-286 -23 c-16
-10 -23 -4 -14 10 3 6 11 8 17 5 6 -4 5 -9 -3 -15z m129 -14 c-3 -3 -9 2 -12
12 -6 14 -5 15 5 6 7 -7 10 -15 7 -18z"/>
<path d="M900 2165 c-33 -19 -21 -19 21 0 19 8 27 14 19 14 -8 0 -26 -6 -40
-14z"/>
<path d="M1106 2038 c-3 -7 -7 -39 -10 -71 -3 -42 -1 -57 7 -54 7 2 11 11 9
21 -2 9 4 16 12 16 10 0 13 -6 10 -15 -6 -16 4 -19 30 -9 13 5 11 15 -14 65
-31 61 -38 68 -44 47z"/>
<path d="M822 1950 c2 -38 5 -70 8 -70 3 0 12 5 20 11 11 8 12 12 2 16 -6 2
-10 9 -6 14 8 14 24 11 24 -6 0 -17 9 -19 29 -6 10 7 5 20 -25 60 -21 28 -42
51 -46 51 -5 0 -7 -31 -6 -70z"/>
<path d="M1162 1888 c-17 -17 -24 -20 -34 -10 -18 18 -45 14 -62 -10 -20 -27
-9 -47 60 -113 l52 -50 31 70 c36 81 39 110 12 125 -27 14 -34 13 -59 -12z"/>
<path d="M470 1872 c0 -12 11 -45 25 -72 14 -28 22 -50 17 -50 -4 0 -23 13
-42 30 -57 48 -72 39 -45 -27 8 -19 15 -44 15 -54 0 -25 6 -24 50 11 l37 29
11 -24 c10 -22 9 -25 -6 -25 -24 0 -42 -19 -42 -45 0 -12 5 -26 12 -33 8 -8 8
-12 1 -12 -16 0 -24 -29 -13 -50 14 -26 40 -32 66 -15 22 14 24 14 24 -3 0
-10 -5 -23 -12 -30 -25 -25 3 -23 32 2 l32 26 35 -67 c20 -38 63 -115 95 -172
42 -72 56 -106 48 -111 -8 -5 -7 -9 5 -13 10 -5 14 -3 9 5 -5 7 -3 8 5 4 7 -5
10 -10 7 -13 -3 -3 5 -24 18 -47 13 -22 27 -56 31 -73 6 -30 27 -44 38 -25 2
4 3 2 1 -4 -2 -9 35 -34 51 -34 4 0 -104 197 -310 565 -89 160 -170 304 -178
320 -15 27 -16 28 -17 7z m10 -152 c0 -5 -4 -10 -10 -10 -5 0 -10 5 -10 10 0
6 5 10 10 10 6 0 10 -4 10 -10z"/>
<path d="M260 1761 c0 -6 4 -13 10 -16 6 -3 7 1 4 9 -7 18 -14 21 -14 7z"/>
<path d="M304 1675 c-4 -8 -4 -24 -1 -34 3 -11 -5 -28 -22 -44 -40 -40 -94
-90 -122 -112 -20 -16 -19 -14 5 12 15 17 25 36 21 43 -4 6 -1 19 6 28 8 9
-14 -8 -47 -38 -97 -88 -104 -114 -45 -175 22 -22 50 -59 63 -82 12 -23 76
-101 141 -173 118 -130 119 -131 101 -153 -10 -12 -3 -7 16 10 l34 33 -29 32
-30 33 30 -27 30 -27 48 24 c26 13 47 21 47 18 0 -4 11 4 25 17 13 12 22 27
19 31 -3 5 2 9 10 9 9 0 16 6 16 14 0 8 8 17 18 20 11 4 29 17 41 29 l21 24
-86 114 c-213 280 -297 389 -301 389 -2 0 -6 -7 -9 -15z m-40 -166 c-6 -11
-24 -2 -24 11 0 5 7 7 15 4 8 -4 12 -10 9 -15z m76 -44 c-12 -13 -28 -22 -33
-18 -6 3 -1 10 10 14 12 4 24 12 28 18 3 6 9 11 12 11 4 0 -4 -11 -17 -25z
m40 -9 c0 -2 -7 -7 -16 -10 -8 -3 -12 -2 -9 4 6 10 25 14 25 6z m-85 -26 c3
-5 1 -10 -4 -10 -6 0 -11 5 -11 10 0 6 2 10 4 10 3 0 8 -4 11 -10z m76 -37
c13 -16 12 -17 -3 -4 -10 7 -18 15 -18 17 0 8 8 3 21 -13z m-231 -58 c30 -30
52 -55 49 -55 -2 0 -29 25 -59 55 -30 30 -52 55 -49 55 2 0 29 -25 59 -55z
m143 40 c-3 -9 -8 -14 -10 -11 -3 3 -2 9 2 15 9 16 15 13 8 -4z m65 -10 c-3
-3 -9 2 -12 12 -6 14 -5 15 5 6 7 -7 10 -15 7 -18z m113 -18 c-10 -9 -11 -8
-5 6 3 10 9 15 12 12 3 -3 0 -11 -7 -18z m-76 -8 c11 -17 -1 -21 -15 -4 -8 9
-8 15 -2 15 6 0 14 -5 17 -11z m50 -9 c3 -5 1 -10 -4 -10 -6 0 -11 5 -11 10 0
6 2 10 4 10 3 0 8 -4 11 -10z m53 -4 c-7 -8 -15 -12 -17 -11 -5 6 10 25 20 25
5 0 4 -6 -3 -14z m-103 -46 c-3 -5 -12 -10 -18 -10 -7 0 -6 4 3 10 19 12 23
12 15 0z m50 0 c3 -5 1 -10 -4 -10 -6 0 -11 5 -11 10 0 6 2 10 4 10 3 0 8 -4
11 -10z m60 -19 c-6 -5 -25 10 -25 20 0 5 6 4 14 -3 8 -7 12 -15 11 -17z m-92
-6 c-3 -9 -8 -14 -10 -11 -3 3 -2 9 2 15 9 16 15 13 8 -4z m-62 -18 c-10 -9
-11 -8 -5 6 3 10 9 15 12 12 3 -3 0 -11 -7 -18z m180 -4 c13 -16 12 -17 -3 -4
-10 7 -18 15 -18 17 0 8 8 3 21 -13z m-141 -7 c0 -2 -7 -7 -16 -10 -8 -3 -12
-2 -9 4 6 10 25 14 25 6z m120 -16 c0 -5 -7 -7 -15 -4 -8 4 -12 10 -9 15 6 11
24 2 24 -11z m-175 -70 c38 -38 67 -70 64 -70 -2 0 -36 32 -74 70 -38 39 -67
70 -64 70 2 0 36 -31 74 -70z m200 51 c3 -5 1 -12 -5 -16 -5 -3 -10 1 -10 9 0
18 6 21 15 7z m55 -11 c0 -5 -4 -10 -10 -10 -5 0 -10 5 -10 10 0 6 5 10 10 10
6 0 10 -4 10 -10z m-85 -29 c-3 -6 -11 -8 -17 -5 -6 4 -5 9 3 15 16 10 23 4
14 -10z m60 9 c3 -5 -1 -10 -10 -10 -9 0 -13 5 -10 10 3 6 8 10 10 10 2 0 7
-4 10 -10z m50 -10 c3 -5 2 -10 -4 -10 -5 0 -13 5 -16 10 -3 6 -2 10 4 10 5 0
13 -4 16 -10z m-27 -35 c-3 -3 -9 2 -12 12 -6 14 -5 15 5 6 7 -7 10 -15 7 -18z"/>
<path d="M349 893 c-13 -16 -12 -17 4 -4 9 7 17 15 17 17 0 8 -8 3 -21 -13z"/>
<path d="M382 470 c0 -14 2 -19 5 -12 2 6 2 18 0 25 -3 6 -5 1 -5 -13z"/>
<path d="M404 441 c7 -11 101 -48 143 -56 23 -4 24 -4 8 4 -54 25 -156 60
-151 52z"/>
</g>
</svg>
